<?xml version="1.0" encoding="utf-8"?>
<!-- Generator: Adobe Illustrator 15.1.0, SVG Export Plug-In . SVG Version: 6.00 Build 0)  -->
<!DOCTYPE svg PUBLIC "-//W3C//DTD SVG 1.1//EN" "http://www.w3.org/Graphics/SVG/1.1/DTD/svg11.dtd">
<svg version="1.1" id="Your_Icon" xmlns="http://www.w3.org/2000/svg" xmlns:xlink="http://www.w3.org/1999/xlink" x="0px" y="0px"
	 width="99.996px" height="100px" viewBox="0 0 99.996 100" enable-background="new 0 0 99.996 100" xml:space="preserve">
<path d="M62.98,0h31.491c2.894,0,5.253,2.35,5.253,5.245v31.492c0,2.894-2.359,5.245-5.253,5.245H62.98
	c-2.899,0-5.248-2.35-5.248-5.245V5.245C57.732,2.35,60.079,0,62.98,0z"/>
<path d="M5.252,0h31.485c2.9,0,5.253,2.35,5.253,5.245v31.492c0,2.894-2.353,5.245-5.253,5.245H5.252
	C2.347,41.982,0,39.631,0,36.737V5.245C0,2.35,2.347,0,5.252,0z"/>
<path d="M62.98,57.727h31.491c2.894,0,5.253,2.348,5.253,5.25v31.49c0,2.897-2.359,5.245-5.253,5.245H62.98
	c-2.899,0-5.248-2.348-5.248-5.245v-31.49C57.732,60.074,60.079,57.727,62.98,57.727z"/>
<path d="M5.252,57.727h31.485c2.9,0,5.253,2.348,5.253,5.25v31.49c0,2.897-2.353,5.245-5.253,5.245H5.252
	C2.347,99.712,0,97.364,0,94.467v-31.49C0,60.074,2.347,57.727,5.252,57.727z"/>
</svg>
