<svg xmlns="http://www.w3.org/2000/svg" xmlns:xlink="http://www.w3.org/1999/xlink" version="1.1" id="Layer_1" x="0px" y="0px" width="50px" height="50px" viewBox="0 0 50 50" enable-background="new 0 0 50 50" xml:space="preserve">
<g id="listen_x5F_to_x5F_you_x5F_hearth">
	<path fill="#000000" d="M34.835,4.068c-3.231,0-6.168,1.2-8.573,3.489c-2.408-2.276-5.35-3.472-8.58-3.472   c-4.965,0-9.855,2.951-12.171,7.345c-2.048,3.892-1.76,8.34,0.777,12.256l0.185,0.312c0.394,0.646,0.896,1.265,1.683,2.046   l17.994,21.857l18.145-21.779l0.062-0.088c0.583-0.56,1.155-1.24,1.658-1.979l0.223-0.359v-0.01   c2.536-3.914,2.82-8.363,0.77-12.262C44.688,7.024,39.797,4.068,34.835,4.068z M43.907,22.576l-0.185,0.294   c-0.382,0.527-0.798,1.002-1.21,1.393L26.162,43.896L10.131,24.419l-0.263-0.263c-0.431-0.435-0.763-0.825-1.023-1.198   l-0.224-0.379c-2.224-3.238-2.525-6.775-0.849-9.959c1.883-3.575,5.865-5.979,9.909-5.979c2.917,0,5.553,1.246,7.622,3.604   l0.964,1.098l0.956-1.102c2.065-2.366,4.698-3.617,7.611-3.617c4.042,0,8.021,2.408,9.909,5.992   C46.423,15.804,46.123,19.341,43.907,22.576z"/>
	<rect x="22.224" y="17.938" fill="#000000" width="11.511" height="2.556"/>
	<rect x="22.224" y="22.038" fill="#000000" width="4.578" height="2.553"/>
	<rect x="22.318" y="26.241" fill="#000000" width="7.881" height="2.555"/>
	<rect x="22.318" y="30.446" fill="#000000" width="7.881" height="2.556"/>
</g>
</svg>